<svg width="27" height="27" viewBox="0 0 27 27" fill="none" xmlns="http://www.w3.org/2000/svg">
<path d="M11.8125 8.33333C11.8125 9.25381 12.568 10 13.5 10C14.432 10 15.1875 9.25381 15.1875 8.33333V1.66667C15.1875 0.746192 14.432 0 13.5 0C12.568 0 11.8125 0.746192 11.8125 1.66667V8.33333Z" fill="white"/>
<path d="M11.8125 25C11.8125 25.9205 12.568 26.6667 13.5 26.6667C14.432 26.6667 15.1875 25.9205 15.1875 25V18.3333C15.1875 17.4129 14.432 16.6667 13.5 16.6667C12.568 16.6667 11.8125 17.4129 11.8125 18.3333V25Z" fill="white"/>
<path d="M15.8869 10.9763C15.2279 10.3254 15.2279 9.27015 15.8869 8.61928L20.6599 3.90524C21.3189 3.25436 22.3874 3.25436 23.0464 3.90524C23.7054 4.55611 23.7054 5.61139 23.0464 6.26226L18.2734 10.9763C17.6144 11.6272 16.5459 11.6272 15.8869 10.9763Z" fill="white"/>
<path d="M3.95449 20.4044C3.29548 21.0553 3.29548 22.1105 3.95448 22.7614C4.61349 23.4123 5.68196 23.4123 6.34097 22.7614L11.1139 18.0474C11.773 17.3965 11.773 16.3412 11.1139 15.6903C10.4549 15.0395 9.38647 15.0395 8.72746 15.6903L3.95449 20.4044Z" fill="white"/>
<path d="M15.8867 15.6904C16.5457 15.0395 17.6141 15.0395 18.2731 15.6904L23.0461 20.4044C23.7051 21.0553 23.7051 22.1106 23.0461 22.7614C22.3871 23.4123 21.3186 23.4123 20.6596 22.7614L15.8867 18.0474C15.2276 17.3965 15.2276 16.3412 15.8867 15.6904Z" fill="white"/>
<path d="M6.34072 3.90526C5.68171 3.25438 4.61324 3.25438 3.95423 3.90526C3.29522 4.55613 3.29522 5.61141 3.95423 6.26228L8.7272 10.9763C9.38621 11.6272 10.4547 11.6272 11.1137 10.9763C11.7727 10.3255 11.7727 9.27018 11.1137 8.6193L6.34072 3.90526Z" fill="white"/>
<path d="M16.875 13.3333C16.875 12.4129 17.6305 11.6667 18.5625 11.6667H25.3125C26.2445 11.6667 27 12.4129 27 13.3333C27 14.2538 26.2445 15 25.3125 15H18.5625C17.6305 15 16.875 14.2538 16.875 13.3333Z" fill="white"/>
<path d="M1.6875 11.6667C0.75552 11.6667 0 12.4129 0 13.3333C0 14.2538 0.755519 15 1.6875 15L8.4375 15C9.36948 15 10.125 14.2538 10.125 13.3333C10.125 12.4129 9.36948 11.6667 8.4375 11.6667L1.6875 11.6667Z" fill="white"/>
</svg>
