<svg width="144" height="32" viewBox="0 0 144 32" fill="none" xmlns="http://www.w3.org/2000/svg">
<path d="M11.8125 11.0013C11.8125 11.9218 12.568 12.668 13.5 12.668C14.432 12.668 15.1875 11.9218 15.1875 11.0013V4.33464C15.1875 3.41416 14.432 2.66797 13.5 2.66797C12.568 2.66797 11.8125 3.41416 11.8125 4.33464V11.0013Z" fill="#0A0A0A"/>
<path d="M11.8125 27.668C11.8125 28.5884 12.568 29.3346 13.5 29.3346C14.432 29.3346 15.1875 28.5884 15.1875 27.668V21.0013C15.1875 20.0808 14.432 19.3346 13.5 19.3346C12.568 19.3346 11.8125 20.0808 11.8125 21.0013V27.668Z" fill="#0A0A0A"/>
<path d="M15.8869 13.6443C15.2279 12.9934 15.2279 11.9381 15.8869 11.2872L20.6599 6.5732C21.3189 5.92233 22.3874 5.92233 23.0464 6.57321C23.7054 7.22408 23.7054 8.27935 23.0464 8.93023L18.2734 13.6443C17.6144 14.2951 16.5459 14.2951 15.8869 13.6443Z" fill="#0A0A0A"/>
<path d="M3.95449 23.0724C3.29548 23.7232 3.29548 24.7785 3.95448 25.4294C4.61349 26.0803 5.68196 26.0803 6.34097 25.4294L11.1139 20.7153C11.773 20.0645 11.773 19.0092 11.1139 18.3583C10.4549 17.7074 9.38647 17.7074 8.72746 18.3583L3.95449 23.0724Z" fill="#0A0A0A"/>
<path d="M15.8867 18.3583C16.5457 17.7075 17.6141 17.7075 18.2731 18.3583L23.0461 23.0724C23.7051 23.7233 23.7051 24.7785 23.0461 25.4294C22.3871 26.0803 21.3186 26.0803 20.6596 25.4294L15.8867 20.7154C15.2276 20.0645 15.2276 19.0092 15.8867 18.3583Z" fill="#0A0A0A"/>
<path d="M6.34072 6.57323C5.68171 5.92235 4.61324 5.92235 3.95423 6.57323C3.29522 7.2241 3.29522 8.27937 3.95423 8.93025L8.7272 13.6443C9.38621 14.2952 10.4547 14.2952 11.1137 13.6443C11.7727 12.9934 11.7727 11.9381 11.1137 11.2873L6.34072 6.57323Z" fill="#0A0A0A"/>
<path d="M16.875 16.0013C16.875 15.0808 17.6305 14.3346 18.5625 14.3346H25.3125C26.2445 14.3346 27 15.0808 27 16.0013C27 16.9218 26.2445 17.668 25.3125 17.668H18.5625C17.6305 17.668 16.875 16.9218 16.875 16.0013Z" fill="#0A0A0A"/>
<path d="M1.6875 14.3346C0.75552 14.3346 0 15.0808 0 16.0013C0 16.9218 0.755519 17.668 1.6875 17.668L8.4375 17.668C9.36948 17.668 10.125 16.9218 10.125 16.0013C10.125 15.0808 9.36948 14.3346 8.4375 14.3346L1.6875 14.3346Z" fill="#0A0A0A"/>
<path d="M40.232 24.5202V9.85619H35V7.48019H48.056V9.85619H42.824V24.5202H40.232Z" fill="#0A0A0A"/>
<path d="M51.5611 24.8082C50.2331 24.8082 49.1691 24.5042 48.3691 23.8962C47.5851 23.2882 47.1931 22.4322 47.1931 21.3282C47.1931 20.2242 47.5211 19.3682 48.1771 18.7602C48.8491 18.1362 49.8811 17.6882 51.2731 17.4162L55.6651 16.5762C55.6651 15.5842 55.4331 14.8482 54.9691 14.3682C54.5051 13.8722 53.8171 13.6242 52.9051 13.6242C52.0891 13.6242 51.4491 13.8082 50.9851 14.1762C50.5211 14.5282 50.2011 15.0562 50.0251 15.7602L47.4091 15.5922C47.6491 14.3122 48.2411 13.3042 49.1851 12.5682C50.1451 11.8322 51.3851 11.4642 52.9051 11.4642C54.6331 11.4642 55.9451 11.9282 56.8411 12.8562C57.7531 13.7682 58.2091 15.0562 58.2091 16.7202V21.6882C58.2091 21.9922 58.2571 22.2082 58.3531 22.3362C58.4651 22.4482 58.6411 22.5042 58.8811 22.5042H59.3371V24.5202C59.2571 24.5362 59.1291 24.5522 58.9531 24.5682C58.7771 24.5842 58.5931 24.5922 58.4011 24.5922C57.8571 24.5922 57.3851 24.5042 56.9851 24.3282C56.6011 24.1522 56.3131 23.8642 56.1211 23.4642C55.9291 23.0482 55.8331 22.4962 55.8331 21.8082L56.0971 21.9282C55.9691 22.4882 55.6891 22.9842 55.2571 23.4162C54.8411 23.8482 54.3051 24.1922 53.6491 24.4482C53.0091 24.6882 52.3131 24.8082 51.5611 24.8082ZM51.9691 22.7922C52.7371 22.7922 53.3931 22.6482 53.9371 22.3602C54.4811 22.0562 54.9051 21.6402 55.2091 21.1122C55.5131 20.5842 55.6651 19.9842 55.6651 19.3122V18.4962L51.9211 19.2162C51.1531 19.3602 50.6091 19.5922 50.2891 19.9122C49.9851 20.2162 49.8331 20.6082 49.8331 21.0882C49.8331 21.6322 50.0171 22.0562 50.3851 22.3602C50.7691 22.6482 51.2971 22.7922 51.9691 22.7922Z" fill="#0A0A0A"/>
<path d="M61.0051 24.5202V11.7522H63.3331L63.4291 15.1602L63.1171 14.9922C63.2611 14.1602 63.5331 13.4882 63.9331 12.9762C64.3331 12.4642 64.8211 12.0882 65.3971 11.8482C65.9731 11.5922 66.5971 11.4642 67.2691 11.4642C68.2291 11.4642 69.0211 11.6802 69.6451 12.1122C70.2851 12.5282 70.7651 13.1042 71.0851 13.8402C71.4211 14.5602 71.5891 15.3842 71.5891 16.3122V24.5202H69.0451V17.0802C69.0451 16.3282 68.9651 15.6962 68.8051 15.1842C68.6451 14.6722 68.3811 14.2802 68.0131 14.0082C67.6451 13.7362 67.1651 13.6002 66.5731 13.6002C65.6771 13.6002 64.9491 13.8962 64.3891 14.4882C63.8291 15.0802 63.5491 15.9442 63.5491 17.0802V24.5202H61.0051Z" fill="#0A0A0A"/>
<path d="M74.4704 24.5202V11.7522H77.0144V24.5202H74.4704ZM74.4224 9.90419V7.36019H77.0624V9.90419H74.4224Z" fill="#0A0A0A"/>
<path d="M86.1875 24.9042C84.8275 24.9042 83.6435 24.6562 82.6355 24.1602C81.6435 23.6642 80.8595 22.9762 80.2835 22.0962C79.7075 21.2162 79.3715 20.1922 79.2755 19.0242L81.9395 18.8562C82.0515 19.6562 82.2835 20.3362 82.6355 20.8962C82.9875 21.4402 83.4595 21.8562 84.0515 22.1442C84.6595 22.4162 85.3875 22.5522 86.2355 22.5522C86.9715 22.5522 87.5955 22.4642 88.1075 22.2882C88.6355 22.0962 89.0355 21.8162 89.3075 21.4482C89.5795 21.0802 89.7155 20.6322 89.7155 20.1042C89.7155 19.6242 89.5955 19.2002 89.3555 18.8322C89.1315 18.4482 88.6915 18.1042 88.0355 17.8002C87.3955 17.4802 86.4515 17.1682 85.2035 16.8642C83.8435 16.5282 82.7555 16.1602 81.9395 15.7602C81.1235 15.3602 80.5315 14.8642 80.1635 14.2722C79.8115 13.6642 79.6355 12.9202 79.6355 12.0402C79.6355 11.0642 79.8675 10.2082 80.3315 9.47219C80.8115 8.72019 81.4915 8.13619 82.3715 7.72019C83.2515 7.30419 84.3075 7.09619 85.5395 7.09619C86.8355 7.09619 87.9395 7.33619 88.8515 7.81619C89.7795 8.29619 90.5075 8.95219 91.0355 9.78419C91.5795 10.6162 91.9155 11.5682 92.0435 12.6402L89.3795 12.7842C89.2995 12.1282 89.0995 11.5522 88.7795 11.0562C88.4595 10.5442 88.0275 10.1522 87.4835 9.88019C86.9395 9.59219 86.2755 9.44819 85.4915 9.44819C84.4995 9.44819 83.7155 9.68019 83.1395 10.1442C82.5795 10.5922 82.2995 11.1922 82.2995 11.9442C82.2995 12.4242 82.4115 12.8322 82.6355 13.1682C82.8755 13.4882 83.2915 13.7682 83.8835 14.0082C84.4915 14.2482 85.3475 14.5042 86.4515 14.7762C87.9235 15.1122 89.0915 15.5282 89.9555 16.0242C90.8355 16.5042 91.4595 17.0722 91.8275 17.7282C92.1955 18.3842 92.3795 19.1282 92.3795 19.9602C92.3795 20.9682 92.1155 21.8482 91.5875 22.6002C91.0755 23.3362 90.3555 23.9042 89.4275 24.3042C88.4995 24.7042 87.4195 24.9042 86.1875 24.9042Z" fill="#0A0A0A"/>
<path d="M95.0026 24.5202V11.7522H97.3306L97.4026 14.9202L97.1146 14.8242C97.2586 14.1202 97.5066 13.5202 97.8586 13.0242C98.2266 12.5282 98.6746 12.1442 99.2026 11.8722C99.7306 11.6002 100.307 11.4642 100.931 11.4642C102.019 11.4642 102.907 11.7762 103.595 12.4002C104.283 13.0082 104.715 13.8482 104.891 14.9202H104.483C104.627 14.1682 104.867 13.5442 105.203 13.0482C105.555 12.5362 106.003 12.1442 106.547 11.8722C107.091 11.6002 107.707 11.4642 108.395 11.4642C109.291 11.4642 110.051 11.6562 110.675 12.0402C111.315 12.4082 111.795 12.9522 112.115 13.6722C112.451 14.3922 112.619 15.2722 112.619 16.3122V24.5202H110.075V16.9362C110.075 15.8322 109.875 15.0002 109.475 14.4402C109.075 13.8802 108.467 13.6002 107.651 13.6002C107.123 13.6002 106.659 13.7362 106.259 14.0082C105.859 14.2802 105.547 14.6722 105.323 15.1842C105.115 15.6962 105.011 16.3122 105.011 17.0322V24.5202H102.587V17.0322C102.587 15.9442 102.403 15.1042 102.035 14.5122C101.683 13.9042 101.075 13.6002 100.211 13.6002C99.6666 13.6002 99.1946 13.7362 98.7946 14.0082C98.4106 14.2802 98.1066 14.6802 97.8826 15.2082C97.6586 15.7202 97.5466 16.3282 97.5466 17.0322V24.5202H95.0026Z" fill="#0A0A0A"/>
<path d="M119.075 24.8082C117.747 24.8082 116.683 24.5042 115.883 23.8962C115.099 23.2882 114.707 22.4322 114.707 21.3282C114.707 20.2242 115.035 19.3682 115.691 18.7602C116.363 18.1362 117.395 17.6882 118.787 17.4162L123.179 16.5762C123.179 15.5842 122.947 14.8482 122.483 14.3682C122.019 13.8722 121.331 13.6242 120.419 13.6242C119.603 13.6242 118.963 13.8082 118.499 14.1762C118.035 14.5282 117.715 15.0562 117.539 15.7602L114.923 15.5922C115.163 14.3122 115.755 13.3042 116.699 12.5682C117.659 11.8322 118.899 11.4642 120.419 11.4642C122.147 11.4642 123.459 11.9282 124.355 12.8562C125.267 13.7682 125.723 15.0562 125.723 16.7202V21.6882C125.723 21.9922 125.771 22.2082 125.867 22.3362C125.979 22.4482 126.155 22.5042 126.395 22.5042H126.851V24.5202C126.771 24.5362 126.643 24.5522 126.467 24.5682C126.291 24.5842 126.107 24.5922 125.915 24.5922C125.371 24.5922 124.899 24.5042 124.499 24.3282C124.115 24.1522 123.827 23.8642 123.635 23.4642C123.443 23.0482 123.347 22.4962 123.347 21.8082L123.611 21.9282C123.483 22.4882 123.203 22.9842 122.771 23.4162C122.355 23.8482 121.819 24.1922 121.163 24.4482C120.523 24.6882 119.827 24.8082 119.075 24.8082ZM119.483 22.7922C120.251 22.7922 120.907 22.6482 121.451 22.3602C121.995 22.0562 122.419 21.6402 122.723 21.1122C123.027 20.5842 123.179 19.9842 123.179 19.3122V18.4962L119.435 19.2162C118.667 19.3602 118.123 19.5922 117.803 19.9122C117.499 20.2162 117.347 20.6082 117.347 21.0882C117.347 21.6322 117.531 22.0562 117.899 22.3602C118.283 22.6482 118.811 22.7922 119.483 22.7922Z" fill="#0A0A0A"/>
<path d="M128.519 24.5202V11.7522H130.847L130.943 15.1362L130.727 15.0642C130.903 13.9122 131.255 13.0722 131.783 12.5442C132.327 12.0162 133.055 11.7522 133.967 11.7522H135.191V14.0322H133.967C133.327 14.0322 132.791 14.1362 132.359 14.3442C131.927 14.5522 131.599 14.8722 131.375 15.3042C131.167 15.7362 131.063 16.2962 131.063 16.9842V24.5202H128.519Z" fill="#0A0A0A"/>
<path d="M141.326 24.5202C140.11 24.5202 139.214 24.2402 138.638 23.6802C138.062 23.1202 137.774 22.2482 137.774 21.0642V8.75219H140.318V20.8722C140.318 21.4642 140.446 21.8722 140.702 22.0962C140.958 22.3202 141.35 22.4322 141.878 22.4322H143.702V24.5202H141.326ZM135.83 13.8402V11.7522H143.702V13.8402H135.83Z" fill="#0A0A0A"/>
</svg>
