<svg width="144" height="32" viewBox="0 0 144 32" fill="none" xmlns="http://www.w3.org/2000/svg">
<path d="M11.8125 11.0003C11.8125 11.9208 12.568 12.667 13.5 12.667C14.432 12.667 15.1875 11.9208 15.1875 11.0003V4.33366C15.1875 3.41318 14.432 2.66699 13.5 2.66699C12.568 2.66699 11.8125 3.41318 11.8125 4.33366V11.0003Z" fill="white"/>
<path d="M11.8125 27.667C11.8125 28.5875 12.568 29.3337 13.5 29.3337C14.432 29.3337 15.1875 28.5875 15.1875 27.667V21.0003C15.1875 20.0799 14.432 19.3337 13.5 19.3337C12.568 19.3337 11.8125 20.0798 11.8125 21.0003V27.667Z" fill="white"/>
<path d="M15.8869 13.6433C15.2279 12.9924 15.2279 11.9371 15.8869 11.2863L20.6599 6.57223C21.3189 5.92136 22.3874 5.92136 23.0464 6.57223C23.7054 7.2231 23.7054 8.27838 23.0464 8.92925L18.2734 13.6433C17.6144 14.2942 16.5459 14.2942 15.8869 13.6433Z" fill="white"/>
<path d="M3.95449 23.0714C3.29548 23.7223 3.29548 24.7775 3.95448 25.4284C4.61349 26.0793 5.68196 26.0793 6.34097 25.4284L11.1139 20.7144C11.773 20.0635 11.773 19.0082 11.1139 18.3573C10.4549 17.7065 9.38647 17.7065 8.72746 18.3573L3.95449 23.0714Z" fill="white"/>
<path d="M15.8867 18.3574C16.5457 17.7065 17.6141 17.7065 18.2731 18.3574L23.0461 23.0714C23.7051 23.7223 23.7051 24.7776 23.0461 25.4284C22.3871 26.0793 21.3186 26.0793 20.6596 25.4284L15.8867 20.7144C15.2276 20.0635 15.2276 19.0082 15.8867 18.3574Z" fill="white"/>
<path d="M6.34072 6.57225C5.68171 5.92138 4.61324 5.92138 3.95423 6.57225C3.29522 7.22312 3.29522 8.2784 3.95423 8.92927L8.7272 13.6433C9.38621 14.2942 10.4547 14.2942 11.1137 13.6433C11.7727 12.9924 11.7727 11.9372 11.1137 11.2863L6.34072 6.57225Z" fill="white"/>
<path d="M16.875 16.0003C16.875 15.0799 17.6305 14.3337 18.5625 14.3337H25.3125C26.2445 14.3337 27 15.0799 27 16.0003C27 16.9208 26.2445 17.667 25.3125 17.667H18.5625C17.6305 17.667 16.875 16.9208 16.875 16.0003Z" fill="white"/>
<path d="M1.6875 14.3337C0.75552 14.3337 0 15.0798 0 16.0003C0 16.9208 0.755519 17.667 1.6875 17.667L8.4375 17.667C9.36948 17.667 10.125 16.9208 10.125 16.0003C10.125 15.0799 9.36948 14.3337 8.4375 14.3337L1.6875 14.3337Z" fill="white"/>
<path d="M40.232 24.52V9.856H35V7.48H48.056V9.856H42.824V24.52H40.232Z" fill="white"/>
<path d="M51.5611 24.808C50.2331 24.808 49.1691 24.504 48.3691 23.896C47.5851 23.288 47.1931 22.432 47.1931 21.328C47.1931 20.224 47.5211 19.368 48.1771 18.76C48.8491 18.136 49.8811 17.688 51.2731 17.416L55.6651 16.576C55.6651 15.584 55.4331 14.848 54.9691 14.368C54.5051 13.872 53.8171 13.624 52.9051 13.624C52.0891 13.624 51.4491 13.808 50.9851 14.176C50.5211 14.528 50.2011 15.056 50.0251 15.76L47.4091 15.592C47.6491 14.312 48.2411 13.304 49.1851 12.568C50.1451 11.832 51.3851 11.464 52.9051 11.464C54.6331 11.464 55.9451 11.928 56.8411 12.856C57.7531 13.768 58.2091 15.056 58.2091 16.72V21.688C58.2091 21.992 58.2571 22.208 58.3531 22.336C58.4651 22.448 58.6411 22.504 58.8811 22.504H59.3371V24.52C59.2571 24.536 59.1291 24.552 58.9531 24.568C58.7771 24.584 58.5931 24.592 58.4011 24.592C57.8571 24.592 57.3851 24.504 56.9851 24.328C56.6011 24.152 56.3131 23.864 56.1211 23.464C55.9291 23.048 55.8331 22.496 55.8331 21.808L56.0971 21.928C55.9691 22.488 55.6891 22.984 55.2571 23.416C54.8411 23.848 54.3051 24.192 53.6491 24.448C53.0091 24.688 52.3131 24.808 51.5611 24.808ZM51.9691 22.792C52.7371 22.792 53.3931 22.648 53.9371 22.36C54.4811 22.056 54.9051 21.64 55.2091 21.112C55.5131 20.584 55.6651 19.984 55.6651 19.312V18.496L51.9211 19.216C51.1531 19.36 50.6091 19.592 50.2891 19.912C49.9851 20.216 49.8331 20.608 49.8331 21.088C49.8331 21.632 50.0171 22.056 50.3851 22.36C50.7691 22.648 51.2971 22.792 51.9691 22.792Z" fill="white"/>
<path d="M61.0051 24.52V11.752H63.3331L63.4291 15.16L63.1171 14.992C63.2611 14.16 63.5331 13.488 63.9331 12.976C64.3331 12.464 64.8211 12.088 65.3971 11.848C65.9731 11.592 66.5971 11.464 67.2691 11.464C68.2291 11.464 69.0211 11.68 69.6451 12.112C70.2851 12.528 70.7651 13.104 71.0851 13.84C71.4211 14.56 71.5891 15.384 71.5891 16.312V24.52H69.0451V17.08C69.0451 16.328 68.9651 15.696 68.8051 15.184C68.6451 14.672 68.3811 14.28 68.0131 14.008C67.6451 13.736 67.1651 13.6 66.5731 13.6C65.6771 13.6 64.9491 13.896 64.3891 14.488C63.8291 15.08 63.5491 15.944 63.5491 17.08V24.52H61.0051Z" fill="white"/>
<path d="M74.4704 24.52V11.752H77.0144V24.52H74.4704ZM74.4224 9.904V7.36H77.0624V9.904H74.4224Z" fill="white"/>
<path d="M86.1875 24.904C84.8275 24.904 83.6435 24.656 82.6355 24.16C81.6435 23.664 80.8595 22.976 80.2835 22.096C79.7075 21.216 79.3715 20.192 79.2755 19.024L81.9395 18.856C82.0515 19.656 82.2835 20.336 82.6355 20.896C82.9875 21.44 83.4595 21.856 84.0515 22.144C84.6595 22.416 85.3875 22.552 86.2355 22.552C86.9715 22.552 87.5955 22.464 88.1075 22.288C88.6355 22.096 89.0355 21.816 89.3075 21.448C89.5795 21.08 89.7155 20.632 89.7155 20.104C89.7155 19.624 89.5955 19.2 89.3555 18.832C89.1315 18.448 88.6915 18.104 88.0355 17.8C87.3955 17.48 86.4515 17.168 85.2035 16.864C83.8435 16.528 82.7555 16.16 81.9395 15.76C81.1235 15.36 80.5315 14.864 80.1635 14.272C79.8115 13.664 79.6355 12.92 79.6355 12.04C79.6355 11.064 79.8675 10.208 80.3315 9.472C80.8115 8.72 81.4915 8.136 82.3715 7.72C83.2515 7.304 84.3075 7.096 85.5395 7.096C86.8355 7.096 87.9395 7.336 88.8515 7.816C89.7795 8.296 90.5075 8.952 91.0355 9.784C91.5795 10.616 91.9155 11.568 92.0435 12.64L89.3795 12.784C89.2995 12.128 89.0995 11.552 88.7795 11.056C88.4595 10.544 88.0275 10.152 87.4835 9.88C86.9395 9.592 86.2755 9.448 85.4915 9.448C84.4995 9.448 83.7155 9.68 83.1395 10.144C82.5795 10.592 82.2995 11.192 82.2995 11.944C82.2995 12.424 82.4115 12.832 82.6355 13.168C82.8755 13.488 83.2915 13.768 83.8835 14.008C84.4915 14.248 85.3475 14.504 86.4515 14.776C87.9235 15.112 89.0915 15.528 89.9555 16.024C90.8355 16.504 91.4595 17.072 91.8275 17.728C92.1955 18.384 92.3795 19.128 92.3795 19.96C92.3795 20.968 92.1155 21.848 91.5875 22.6C91.0755 23.336 90.3555 23.904 89.4275 24.304C88.4995 24.704 87.4195 24.904 86.1875 24.904Z" fill="white"/>
<path d="M95.0026 24.52V11.752H97.3306L97.4026 14.92L97.1146 14.824C97.2586 14.12 97.5066 13.52 97.8586 13.024C98.2266 12.528 98.6746 12.144 99.2026 11.872C99.7306 11.6 100.307 11.464 100.931 11.464C102.019 11.464 102.907 11.776 103.595 12.4C104.283 13.008 104.715 13.848 104.891 14.92H104.483C104.627 14.168 104.867 13.544 105.203 13.048C105.555 12.536 106.003 12.144 106.547 11.872C107.091 11.6 107.707 11.464 108.395 11.464C109.291 11.464 110.051 11.656 110.675 12.04C111.315 12.408 111.795 12.952 112.115 13.672C112.451 14.392 112.619 15.272 112.619 16.312V24.52H110.075V16.936C110.075 15.832 109.875 15 109.475 14.44C109.075 13.88 108.467 13.6 107.651 13.6C107.123 13.6 106.659 13.736 106.259 14.008C105.859 14.28 105.547 14.672 105.323 15.184C105.115 15.696 105.011 16.312 105.011 17.032V24.52H102.587V17.032C102.587 15.944 102.403 15.104 102.035 14.512C101.683 13.904 101.075 13.6 100.211 13.6C99.6666 13.6 99.1946 13.736 98.7946 14.008C98.4106 14.28 98.1066 14.68 97.8826 15.208C97.6586 15.72 97.5466 16.328 97.5466 17.032V24.52H95.0026Z" fill="white"/>
<path d="M119.075 24.808C117.747 24.808 116.683 24.504 115.883 23.896C115.099 23.288 114.707 22.432 114.707 21.328C114.707 20.224 115.035 19.368 115.691 18.76C116.363 18.136 117.395 17.688 118.787 17.416L123.179 16.576C123.179 15.584 122.947 14.848 122.483 14.368C122.019 13.872 121.331 13.624 120.419 13.624C119.603 13.624 118.963 13.808 118.499 14.176C118.035 14.528 117.715 15.056 117.539 15.76L114.923 15.592C115.163 14.312 115.755 13.304 116.699 12.568C117.659 11.832 118.899 11.464 120.419 11.464C122.147 11.464 123.459 11.928 124.355 12.856C125.267 13.768 125.723 15.056 125.723 16.72V21.688C125.723 21.992 125.771 22.208 125.867 22.336C125.979 22.448 126.155 22.504 126.395 22.504H126.851V24.52C126.771 24.536 126.643 24.552 126.467 24.568C126.291 24.584 126.107 24.592 125.915 24.592C125.371 24.592 124.899 24.504 124.499 24.328C124.115 24.152 123.827 23.864 123.635 23.464C123.443 23.048 123.347 22.496 123.347 21.808L123.611 21.928C123.483 22.488 123.203 22.984 122.771 23.416C122.355 23.848 121.819 24.192 121.163 24.448C120.523 24.688 119.827 24.808 119.075 24.808ZM119.483 22.792C120.251 22.792 120.907 22.648 121.451 22.36C121.995 22.056 122.419 21.64 122.723 21.112C123.027 20.584 123.179 19.984 123.179 19.312V18.496L119.435 19.216C118.667 19.36 118.123 19.592 117.803 19.912C117.499 20.216 117.347 20.608 117.347 21.088C117.347 21.632 117.531 22.056 117.899 22.36C118.283 22.648 118.811 22.792 119.483 22.792Z" fill="white"/>
<path d="M128.519 24.52V11.752H130.847L130.943 15.136L130.727 15.064C130.903 13.912 131.255 13.072 131.783 12.544C132.327 12.016 133.055 11.752 133.967 11.752H135.191V14.032H133.967C133.327 14.032 132.791 14.136 132.359 14.344C131.927 14.552 131.599 14.872 131.375 15.304C131.167 15.736 131.063 16.296 131.063 16.984V24.52H128.519Z" fill="white"/>
<path d="M141.326 24.52C140.11 24.52 139.214 24.24 138.638 23.68C138.062 23.12 137.774 22.248 137.774 21.064V8.752H140.318V20.872C140.318 21.464 140.446 21.872 140.702 22.096C140.958 22.32 141.35 22.432 141.878 22.432H143.702V24.52H141.326ZM135.83 13.84V11.752H143.702V13.84H135.83Z" fill="white"/>
</svg>
